<svg xmlns="http://www.w3.org/2000/svg" width="25.797" height="25.797" viewBox="0 0 25.797 25.797"><defs><style>.a{fill:#fad602;}</style></defs><path class="a" d="M691.039,402.231a13.057,13.057,0,0,1-6.89-6.889,12.969,12.969,0,0,1,0-10.009,13.057,13.057,0,0,1,6.89-6.889,12.967,12.967,0,0,1,10.009,0,13.055,13.055,0,0,1,6.89,6.889,12.968,12.968,0,0,1,0,10.009,13.055,13.055,0,0,1-6.89,6.889,12.967,12.967,0,0,1-10.009,0Zm-.546-11.677a1.062,1.062,0,0,0,.837.341h3.857v-3.708h-.682a1.261,1.261,0,0,1-.856-.261.876.876,0,0,1-.3-.694.906.906,0,0,1,.2-.6.749.749,0,0,1,.614-.248.922.922,0,0,1,.707.354,1.181,1.181,0,0,1,.31.8v.645h1.724v-.645a1.18,1.18,0,0,1,.31-.8.91.91,0,0,1,.694-.354.746.746,0,0,1,.62.248.926.926,0,0,1,.2.6.886.886,0,0,1-.291.694,1.236,1.236,0,0,1-.849.261h-.682v3.708h3.857a1.067,1.067,0,0,0,.831-.341,1.27,1.27,0,0,0,.31-.887v-.682a1.808,1.808,0,0,0-.465-1.327,1.721,1.721,0,0,0-1.284-.471h-.186a1.933,1.933,0,0,0,.509-1.3,2.014,2.014,0,0,0-.657-1.556,2.363,2.363,0,0,0-2.983-.136,2.18,2.18,0,0,0-.8,1.346,2.065,2.065,0,0,0-.788-1.346,2.3,2.3,0,0,0-1.408-.465,2.275,2.275,0,0,0-1.581.6,2.005,2.005,0,0,0-.664,1.556,1.931,1.931,0,0,0,.509,1.3h-.186a1.7,1.7,0,0,0-1.277.471,1.822,1.822,0,0,0-.459,1.327v.682A1.282,1.282,0,0,0,690.494,390.554Zm.781,5.271a1.658,1.658,0,0,0,1.247.453h2.666v-4.3h-4.353V394.6A1.677,1.677,0,0,0,691.275,395.825Zm8.291.453a1.548,1.548,0,0,0,1.7-1.674v-2.629h-4.353v4.3Z" transform="translate(-683.145 -377.438)"/></svg>