<?xml version="1.0" encoding="utf-8"?>
<!-- Generator: Adobe Illustrator 16.0.0, SVG Export Plug-In . SVG Version: 6.00 Build 0)  -->
<!DOCTYPE svg PUBLIC "-//W3C//DTD SVG 1.1//EN" "http://www.w3.org/Graphics/SVG/1.1/DTD/svg11.dtd">
<svg version="1.1" id="Layer_1" xmlns="http://www.w3.org/2000/svg" xmlns:xlink="http://www.w3.org/1999/xlink" x="0px" y="0px"
	 width="81.391px" height="40.071px" viewBox="0 0 81.391 40.071" enable-background="new 0 0 81.391 40.071" xml:space="preserve">
<g>
	<g>
		<g>
			<path fill="#FFFFFF" d="M8.945,6.042c-1.484,0-2.492,0.531-2.492,1.596c0,3.613,10.444,1.596,10.416,8.652
				c0,3.836-3.332,5.908-7.672,5.908c-3.22,0-6.44-1.232-8.652-3.109l1.765-3.611c2.016,1.793,4.871,2.941,6.943,2.941
				c1.82,0,2.912-0.672,2.912-1.877c0-3.695-10.444-1.539-10.444-8.484c0-3.555,3.053-5.795,7.588-5.795
				c2.744,0,5.488,0.84,7.448,2.127l-1.708,3.668C12.978,6.827,10.513,6.042,8.945,6.042z"/>
			<path fill="#FFFFFF" d="M24.205,6.995v15.063h-4.313V6.995H24.205z M24.149,2.71c0,1.232-0.868,2.156-2.101,2.156
				c-1.231,0-2.1-0.924-2.1-2.156c0-1.26,0.868-2.156,2.1-2.156C23.281,0.554,24.149,1.45,24.149,2.71z"/>
			<path fill="#FFFFFF" d="M42.208,15.843H31.4c0.504,1.904,1.96,3.023,3.893,3.023c1.426,0,2.77-0.561,3.807-1.596l2.268,2.295
				c-1.512,1.682-3.725,2.66-6.439,2.66c-4.816,0-7.868-3.08-7.868-7.643c0-4.648,3.164-7.729,7.756-7.729
				C40.108,6.854,42.573,10.354,42.208,15.843z M38.176,13.294c-0.057-1.988-1.344-3.275-3.332-3.275
				c-1.904,0-3.192,1.287-3.528,3.275H38.176z"/>
			<path fill="#FFFFFF" d="M54.36,6.827v4.059c-3.08-0.279-4.984,1.373-4.984,3.92v7.252h-4.313V6.995h4.313V9.71
				C50.411,7.862,52.12,6.854,54.36,6.827z"/>
			<path fill="#FFFFFF" d="M66.006,6.827v4.059c-3.08-0.279-4.984,1.373-4.984,3.92v7.252h-4.311V6.995h4.311V9.71
				C62.059,7.862,63.766,6.854,66.006,6.827z"/>
			<path fill="#FFFFFF" d="M76.618,22.058v-1.764c-1.008,1.26-2.631,1.961-4.73,1.961c-3.221,0-5.18-1.961-5.18-4.705
				c0-2.828,2.043-4.508,5.738-4.535h4.145v-0.281c0-1.596-1.064-2.52-3.137-2.52c-1.344,0-2.91,0.449-4.479,1.316l-1.344-2.969
				c2.238-1.119,4.172-1.734,6.803-1.734c4.033,0,6.355,2.016,6.385,5.402l0.027,9.828H76.618z M76.59,16.905v-1.344h-3.389
				c-1.65,0-2.463,0.504-2.463,1.709c0,1.148,0.896,1.902,2.352,1.902C74.911,19.173,76.338,18.194,76.59,16.905z"/>
		</g>
	</g>
	<g>
		<path fill="#FFFFFF" d="M2.98,29.788l5.885,7.97v-7.97h1.107v9.807H8.822l-5.885-7.958v7.958h-1.12v-9.807H2.98z"/>
		<path fill="#FFFFFF" d="M23.351,37.088h-5.338l-1.092,2.507H15.73l4.399-9.807h1.163l4.385,9.807h-1.219L23.351,37.088z
			 M22.903,36.05l-2.228-5.044l-2.2,5.044H22.903z"/>
		<path fill="#FFFFFF" d="M37.613,29.788v1.035h-3.208v8.771h-1.121v-8.771h-3.193v-1.035H37.613z"/>
		<path fill="#FFFFFF" d="M47.349,38.614c1.863,0,2.984-1.121,2.984-3.055v-5.771h1.122v5.771c0,2.563-1.54,4.076-4.106,4.076
			c-2.577,0-4.131-1.513-4.131-4.076v-5.771h1.12v5.771C44.338,37.493,45.488,38.614,47.349,38.614z"/>
		<path fill="#FFFFFF" d="M64.821,39.595l-2.058-3.139c-0.196,0.016-0.408,0.028-0.632,0.028h-2.606v3.11h-1.118v-9.807h3.725
			c2.452,0,3.865,1.203,3.865,3.292c0,1.608-0.799,2.718-2.212,3.165l2.313,3.35H64.821z M62.131,35.449
			c1.778,0,2.789-0.801,2.789-2.342c0-1.498-1.011-2.284-2.789-2.284h-2.606v4.626H62.131z"/>
		<path fill="#FFFFFF" d="M79.393,29.788v1.035h-5.534v3.293h4.947v1.024h-4.947v3.416h5.715v1.038h-6.838v-9.807H79.393z"/>
	</g>
</g>
</svg>
